<?xml version="1.0" standalone="no"?>
<!DOCTYPE svg PUBLIC "-//W3C//DTD SVG 20010904//EN"
 "http://www.w3.org/TR/2001/REC-SVG-20010904/DTD/svg10.dtd">
<svg version="1.0" xmlns="http://www.w3.org/2000/svg"
 width="400.000000pt" height="400.000000pt" viewBox="0 0 400.000000 400.000000"
 preserveAspectRatio="xMidYMid meet">
<metadata>
Created by potrace 1.11, written by Peter Selinger 2001-2013
</metadata>
<g transform="translate(0.000000,400.000000) scale(0.100000,-0.100000)"
fill="#000000" stroke="none">
<path d="M0 2000 l0 -2000 2000 0 2000 0 0 2000 0 2000 -2000 0 -2000 0 0
-2000z m1843 1135 c101 -19 219 -19 325 1 103 19 106 18 237 -81 86 -65 110
-77 211 -110 68 -21 127 -47 146 -63 20 -17 51 -68 86 -142 48 -101 64 -125
139 -201 52 -54 90 -101 98 -125 9 -26 11 -74 7 -163 -4 -121 -3 -130 27 -224
32 -99 38 -154 22 -185 -5 -9 -30 -51 -55 -92 -53 -90 -70 -132 -86 -225 -27
-158 -39 -176 -179 -260 -86 -51 -121 -83 -192 -176 -78 -100 -109 -116 -249
-125 -117 -8 -147 -16 -269 -70 -47 -20 -97 -37 -111 -36 -15 0 -68 19 -118
42 -100 44 -145 55 -295 68 -118 11 -125 15 -227 141 -63 78 -90 102 -167 150
-150 92 -169 119 -193 274 -13 85 -32 132 -91 230 -26 43 -50 91 -54 107 -4
18 6 73 30 159 35 125 36 134 28 228 -13 157 -8 169 111 291 70 72 89 100 141
205 69 141 75 145 237 197 83 26 112 41 186 98 85 65 146 102 167 102 5 0 45
-7 88 -15z"/>
<path d="M1660 3019 c-96 -78 -148 -107 -235 -134 -152 -48 -146 -43 -206
-171 -41 -90 -65 -129 -111 -177 -33 -34 -75 -79 -94 -100 l-34 -38 2 -142 c3
-135 1 -147 -30 -254 -37 -127 -37 -129 34 -240 51 -80 62 -109 89 -240 13
-63 29 -121 35 -128 7 -8 56 -41 111 -75 96 -59 118 -80 221 -210 49 -62 47
-61 233 -78 86 -8 114 -16 203 -56 56 -25 112 -46 123 -46 12 0 67 20 123 45
106 46 190 65 288 65 31 0 68 4 82 10 14 5 53 44 88 87 85 105 120 136 208
188 105 60 118 77 135 171 30 167 26 156 106 290 27 45 49 93 49 107 0 13 -14
69 -32 123 -30 95 -32 105 -29 247 l2 148 -88 90 c-77 79 -94 104 -148 212
l-60 122 -70 23 c-164 55 -185 66 -281 138 -112 85 -110 84 -271 57 -98 -16
-108 -16 -205 0 -156 26 -164 25 -238 -34z m203 16 c98 -19 192 -19 277 0 111
24 116 23 226 -60 78 -59 116 -80 179 -101 180 -58 161 -44 222 -172 47 -101
63 -124 143 -207 l91 -94 -2 -143 c-1 -134 1 -150 30 -245 17 -56 31 -110 31
-120 0 -10 -25 -59 -55 -108 -60 -99 -76 -141 -101 -276 -9 -49 -23 -96 -30
-104 -8 -7 -52 -37 -98 -64 -98 -59 -122 -81 -197 -176 -31 -38 -63 -76 -72
-83 -9 -8 -64 -17 -137 -22 -88 -7 -136 -16 -178 -33 -31 -13 -87 -37 -124
-52 l-68 -28 -87 38 c-138 59 -161 65 -288 75 l-120 9 -35 43 c-120 147 -139
164 -233 223 -53 33 -101 65 -107 71 -5 5 -21 63 -34 127 -23 108 -65 215
-101 257 -7 8 -22 35 -34 58 l-22 44 33 106 c31 101 33 116 33 253 l0 146 87
92 c75 79 95 107 141 204 30 62 60 117 68 123 8 6 65 28 128 49 100 33 125 46
210 111 59 45 106 74 121 74 14 0 60 -7 103 -15z"/>
<path d="M1835 2664 c-193 -47 -383 -211 -463 -400 -151 -358 41 -781 413
-910 72 -26 93 -28 215 -28 120 0 144 3 217 27 197 66 371 241 434 437 30 93
37 263 14 364 -28 126 -85 227 -184 326 -99 98 -186 149 -307 180 -93 24 -249
26 -339 4z m374 -67 c40 -14 75 -28 78 -31 3 -2 4 -148 4 -323 -2 -355 -3
-361 -76 -441 -149 -166 -435 -98 -495 118 -5 19 -10 170 -10 337 l0 303 40
20 c72 37 147 50 270 46 93 -2 129 -8 189 -29z m234 -145 c17 -18 18 -41 15
-298 l-3 -279 -31 -65 c-58 -123 -175 -223 -299 -255 -222 -57 -444 46 -544
254 l-36 76 -3 275 -3 276 50 42 c27 23 54 42 60 42 8 0 11 -92 11 -294 0
-321 2 -337 59 -420 113 -164 357 -195 505 -65 49 43 91 106 107 161 5 18 9
161 9 324 0 159 3 293 6 297 7 7 66 -36 97 -71z m120 -161 c51 -100 71 -200
64 -325 -9 -175 -65 -298 -193 -422 -190 -184 -491 -226 -727 -102 -93 49
-224 184 -270 278 -64 130 -82 273 -52 415 16 75 77 215 95 215 6 0 10 -70 10
-211 0 -160 4 -226 16 -273 44 -171 202 -326 374 -365 112 -26 258 -7 363 45
71 36 186 154 219 225 45 96 49 127 48 365 0 123 4 224 8 224 5 0 25 -31 45
-69z"/>
</g>
</svg>
